<?xml version="1.0" standalone="no"?>
<!DOCTYPE svg PUBLIC "-//W3C//DTD SVG 20010904//EN"
 "http://www.w3.org/TR/2001/REC-SVG-20010904/DTD/svg10.dtd">
<svg version="1.0" xmlns="http://www.w3.org/2000/svg"
 width="669.000000pt" height="669.000000pt" viewBox="0 0 669.000000 669.000000"
 preserveAspectRatio="xMidYMid meet">
<metadata>
Created by potrace 1.14, written by Peter Selinger 2001-2017
</metadata>
<g transform="translate(0.000000,669.000000) scale(0.100000,-0.100000)"
fill="#000000" stroke="none">
<path d="M507 6665 c-199 -103 -357 -280 -431 -484 -27 -75 -30 -87 -46 -191
-7 -43 -10 -948 -8 -2725 l3 -2660 28 -88 c63 -203 188 -380 339 -482 l53 -35
2900 0 2900 0 53 36 c155 104 286 294 344 499 l23 80 2 2690 c1 2624 1 2692
-18 2765 -58 227 -191 418 -376 541 -42 27 -92 56 -111 64 -30 13 -406 15
-2821 15 l-2786 -1 -48 -24z"/>
</g>
</svg>
