<?xml version="1.0" standalone="no"?>
<!DOCTYPE svg PUBLIC "-//W3C//DTD SVG 20010904//EN"
 "http://www.w3.org/TR/2001/REC-SVG-20010904/DTD/svg10.dtd">
<svg version="1.0" xmlns="http://www.w3.org/2000/svg"
 width="472.000000pt" height="472.000000pt" viewBox="0 0 472.000000 472.000000"
 preserveAspectRatio="xMidYMid meet">
<metadata>
Created by potrace 1.14, written by Peter Selinger 2001-2017
</metadata>
<g transform="translate(0.000000,472.000000) scale(0.100000,-0.100000)"
fill="#000000" stroke="none">
<path d="M2265 4449 c-90 -15 -223 -73 -285 -125 -12 -10 -32 -8 -105 12 -144
38 -257 27 -394 -38 -76 -36 -191 -145 -233 -220 -61 -109 -72 -154 -72 -288
0 -103 3 -133 19 -167 11 -24 23 -43 26 -43 4 0 29 19 55 43 100 88 248 170
372 206 97 28 179 34 280 21 86 -11 92 -10 133 11 119 62 280 110 344 102 64
-8 177 -44 260 -83 84 -39 87 -40 148 -30 34 5 94 10 134 10 67 0 100 11 69
23 -8 3 -19 23 -26 44 -15 51 -26 77 -63 148 -142 279 -391 420 -662 374z"/>
<path d="M2954 4349 c-7 -11 9 -40 36 -64 83 -75 196 -396 150 -425 -21 -13
-1 -31 84 -69 77 -36 179 -96 214 -127 87 -76 108 -79 130 -19 16 45 21 194 9
267 -10 64 -52 163 -92 217 -69 96 -229 197 -345 220 -63 13 -178 13 -186 0z"/>
<path d="M3747 3813 c-4 -3 -7 -33 -7 -65 0 -65 -16 -127 -60 -231 l-29 -69
64 -126 c111 -222 141 -359 132 -607 -5 -169 -23 -252 -84 -394 -53 -125 -120
-233 -212 -343 -45 -53 -81 -101 -81 -108 0 -6 8 -23 17 -37 25 -39 30 -221 9
-332 -54 -286 -314 -544 -634 -628 -99 -26 -145 -29 -472 -26 -47 0 -155 0
-240 1 -133 0 -169 3 -251 25 -304 80 -551 313 -619 585 -25 97 -27 315 -5
377 8 22 15 43 15 46 0 4 -34 47 -76 95 -146 171 -242 361 -286 569 -16 80
-17 372 0 450 30 138 80 261 168 411 l24 41 -29 54 c-37 69 -63 156 -70 239
-6 63 -7 65 -35 68 -70 8 -238 -65 -359 -156 -127 -96 -261 -302 -303 -467
-29 -109 -26 -309 4 -397 26 -76 82 -167 142 -232 l41 -45 4 -128 c7 -317 135
-528 405 -668 90 -46 110 -69 110 -125 0 -32 -20 -57 -54 -66 -61 -15 -275
105 -384 216 -150 152 -233 362 -247 622 -4 73 -9 93 -26 111 -28 28 -79 109
-109 170 -23 46 -46 74 -55 66 -15 -16 -27 -205 -22 -354 6 -197 30 -329 84
-475 118 -317 368 -595 649 -722 72 -32 75 -35 90 -83 63 -192 228 -406 414
-537 270 -191 638 -261 933 -179 65 18 69 18 144 -1 101 -26 331 -35 444 -18
45 6 119 22 164 35 246 72 505 261 640 469 55 83 125 231 125 261 0 8 50 39
110 69 61 31 131 69 155 86 71 49 213 188 269 264 84 116 92 128 139 226 101
210 148 438 146 714 0 123 -18 247 -36 253 -9 3 -66 -96 -68 -118 0 -7 -28
-47 -61 -88 -40 -50 -51 -86 -58 -191 -9 -139 -37 -244 -96 -365 -85 -174
-206 -297 -375 -380 -156 -77 -210 -69 -206 31 0 26 3 50 6 54 3 5 43 26 88
49 149 72 263 176 332 303 58 110 77 186 84 353 l6 151 38 41 c90 96 137 186
157 294 75 405 -190 827 -594 943 -97 29 -100 29 -109 19z"/>
<path d="M2274 3775 c-87 -28 -140 -55 -219 -107 -153 -102 -295 -285 -352
-453 -24 -71 -27 -95 -27 -220 -1 -135 0 -143 33 -235 19 -52 43 -110 55 -130
62 -108 176 -231 269 -294 63 -41 211 -109 265 -121 68 -14 94 -85 51 -139
-25 -32 -48 -33 -148 -5 -337 92 -604 377 -681 727 -38 171 -11 413 62 572 32
68 109 177 178 253 73 80 60 88 -73 43 -205 -68 -363 -197 -468 -381 -101
-177 -132 -295 -132 -505 0 -174 21 -282 81 -411 56 -122 101 -188 194 -285
149 -155 312 -258 521 -329 l87 -30 142 72 c345 172 610 398 803 683 117 173
163 301 171 470 9 176 -24 304 -116 444 -125 192 -322 341 -515 391 -77 20
-96 19 -181 -10z m346 -397 c72 -27 187 -98 239 -150 50 -49 116 -141 146
-203 29 -62 45 -159 33 -197 -9 -26 -45 -48 -79 -48 -28 0 -66 44 -74 86 -21
115 -131 251 -250 311 -57 29 -163 61 -215 66 -162 15 -351 -70 -453 -205 -41
-54 -87 -146 -87 -174 0 -23 -46 -64 -73 -64 -13 0 -37 12 -52 26 -26 24 -27
29 -21 86 16 155 177 354 357 440 99 48 160 57 334 53 107 -2 141 -7 195 -27z
m-85 -402 c96 -44 175 -134 175 -201 0 -40 -37 -75 -79 -75 -39 0 -59 15 -95
73 -9 16 -38 37 -62 48 -158 67 -310 -65 -214 -186 36 -45 38 -84 8 -119 -52
-59 -130 -33 -177 59 -22 41 -26 63 -26 130 0 87 20 142 73 198 92 99 270 131
397 73z"/>
<path d="M2965 3690 c-4 -7 13 -33 41 -63 27 -28 51 -54 54 -57 12 -12 69 -99
94 -143 37 -65 82 -199 97 -291 18 -116 7 -301 -25 -410 -126 -422 -541 -846
-1092 -1115 -269 -131 -339 -138 -365 -36 -11 42 -13 44 -97 79 -48 20 -118
56 -156 78 -67 41 -69 41 -83 22 -22 -28 -12 -190 16 -269 63 -178 185 -308
376 -400 162 -79 201 -84 558 -73 28 1 93 -2 142 -6 165 -15 379 42 526 140
191 127 318 369 294 560 -3 30 -10 56 -15 59 -4 3 -52 -24 -107 -60 -112 -75
-364 -202 -533 -269 -116 -45 -312 -106 -344 -106 -10 0 -31 14 -48 30 -25 26
-29 36 -24 62 10 50 29 63 159 108 450 157 729 311 937 520 227 227 318 453
307 762 -2 73 -7 147 -11 163 -42 185 -125 345 -245 468 -122 126 -223 190
-363 231 -32 9 -64 19 -72 22 -8 3 -17 0 -21 -6z"/>
</g>
</svg>
